<?xml version="1.0" standalone="no"?>
<!DOCTYPE svg PUBLIC "-//W3C//DTD SVG 20010904//EN"
 "http://www.w3.org/TR/2001/REC-SVG-20010904/DTD/svg10.dtd">
<svg version="1.0" xmlns="http://www.w3.org/2000/svg"
 width="295.000000pt" height="286.000000pt" viewBox="0 0 295.000000 286.000000"
 preserveAspectRatio="xMidYMid meet">
<metadata>
Created by potrace 1.16, written by Peter Selinger 2001-2019
</metadata>
<g transform="translate(0.000000,286.000000) scale(0.100000,-0.100000)"
fill="#000000" stroke="none">
<path d="M0 1440 l0 -1420 1475 0 1475 0 0 1420 0 1420 -1475 0 -1475 0 0
-1420z m2908 -2 l-3 -1363 -1425 0 -1425 0 -3 1363 -2 1362 1430 0 1430 0 -2
-1362z"/>
<path d="M1470 2513 c-194 -25 -341 -112 -439 -259 -74 -109 -103 -209 -103
-349 0 -92 4 -123 26 -190 47 -146 112 -234 231 -313 112 -76 190 -97 355 -97
112 0 147 4 207 23 84 26 206 104 258 165 54 63 59 74 35 87 -17 9 -24 6 -48
-22 -57 -69 -110 -110 -192 -151 -84 -41 -86 -42 -195 -42 -102 0 -114 2 -168
29 -165 84 -267 288 -267 536 0 248 95 448 246 517 50 23 65 25 152 21 83 -3
104 -8 149 -32 87 -48 162 -128 221 -236 20 -35 38 -56 51 -58 21 -3 21 0 21
182 l0 186 -26 0 c-14 0 -38 -9 -53 -19 -46 -33 -88 -35 -205 -6 -112 27 -197
36 -256 28z m-120 -47 c0 -2 -26 -20 -57 -41 -113 -75 -193 -175 -244 -302
-58 -143 -50 -341 17 -476 71 -139 215 -263 354 -304 67 -19 51 -29 -22 -13
-89 19 -193 75 -268 146 -76 72 -105 116 -146 220 -26 63 -28 80 -28 209 -1
124 2 148 23 205 34 91 93 182 158 239 62 56 213 139 213 117z"/>
<path d="M1544 980 c-11 -4 -32 -22 -46 -39 -34 -39 -42 -111 -36 -310 4 -153
12 -183 57 -218 20 -16 83 -16 115 -2 20 9 29 9 41 -1 13 -11 15 2 15 118 0
76 4 133 10 137 25 16 4 25 -57 25 -61 0 -78 -12 -30 -22 16 -3 19 -15 20
-114 2 -123 -6 -144 -53 -144 -57 0 -60 13 -60 277 0 228 1 241 20 258 26 23
74 23 100 0 17 -16 38 -77 32 -97 -1 -5 3 -8 8 -8 6 0 10 30 10 70 0 62 -11
91 -22 58 -3 -9 -16 -8 -49 5 -50 19 -47 19 -75 7z"/>
<path d="M405 962 c-60 -37 -60 -36 -60 -266 0 -188 2 -215 18 -240 43 -65
138 -67 178 -2 20 33 26 96 9 96 -5 0 -10 -20 -10 -44 0 -36 -5 -48 -26 -65
-27 -21 -69 -27 -90 -13 -29 19 -34 55 -34 265 0 202 1 216 21 241 45 57 129
18 129 -60 0 -19 5 -34 10 -34 6 0 10 30 10 71 0 62 -2 70 -15 59 -11 -9 -22
-9 -46 -1 -44 15 -59 14 -94 -7z"/>
<path d="M680 962 c-57 -28 -64 -55 -68 -247 -3 -110 0 -186 8 -214 13 -49 48
-86 88 -94 35 -7 89 19 116 56 20 27 21 42 21 225 0 222 -6 246 -69 276 -43
20 -53 20 -96 -2z m84 -13 l26 -20 0 -233 c0 -193 -3 -235 -16 -254 -28 -40
-103 -21 -104 26 -4 128 0 446 5 462 6 18 33 37 56 39 4 1 18 -8 33 -20z"/>
<path d="M890 971 c0 -6 5 -13 10 -16 14 -8 14 -522 0 -530 -5 -3 -10 -11 -10
-17 0 -18 154 -4 185 16 48 31 55 67 55 273 0 209 -7 235 -69 268 -33 17 -171
21 -171 6z m143 -22 c12 -7 25 -17 29 -23 4 -6 8 -112 8 -235 0 -255 -2 -261
-72 -261 l-38 0 0 258 c0 142 3 262 7 265 10 11 42 8 66 -4z"/>
<path d="M1180 971 c0 -6 5 -13 10 -16 14 -8 14 -522 0 -530 -29 -18 0 -25
100 -25 l110 0 0 40 c0 22 -4 40 -10 40 -5 0 -10 -8 -10 -18 0 -30 -22 -42
-77 -42 l-54 0 3 128 3 127 29 3 c22 3 34 -3 48 -20 18 -23 18 -23 17 32 0 47
-2 52 -11 33 -9 -18 -20 -23 -50 -23 l-38 0 0 129 0 129 48 4 c51 5 82 -11 82
-44 0 -10 5 -18 10 -18 6 0 10 18 10 40 l0 40 -110 0 c-62 0 -110 -4 -110 -9z"/>
<path d="M1738 968 c15 -15 17 -534 2 -543 -29 -18 0 -25 100 -25 l110 0 -1
43 0 42 -16 -32 c-16 -31 -20 -33 -70 -33 l-53 0 0 130 0 130 30 0 c19 0 34
-7 42 -20 20 -31 28 -24 28 24 0 47 -14 69 -23 36 -4 -15 -14 -20 -41 -20
l-36 0 0 129 0 129 46 4 c53 4 63 -1 80 -39 l12 -28 1 43 1 42 -112 0 c-87 0
-109 -3 -100 -12z"/>
<path d="M2000 971 c0 -6 5 -11 10 -11 14 0 14 -527 0 -535 -21 -13 -9 -25 25
-25 32 0 48 14 26 22 -10 3 -20 428 -11 428 3 0 29 -82 58 -182 83 -284 74
-263 110 -266 l32 -3 0 272 c0 239 2 275 17 291 15 17 14 18 -20 18 -21 0 -37
-4 -37 -10 0 -5 5 -10 10 -10 6 0 10 -83 9 -232 l-1 -233 -29 90 c-16 50 -49
158 -73 240 l-44 150 -41 3 c-24 2 -41 -1 -41 -7z"/>
<path d="M2330 971 c0 -6 5 -13 10 -16 6 -4 10 -103 10 -265 0 -162 -4 -261
-10 -265 -23 -14 -7 -25 35 -25 42 0 58 11 35 25 -6 4 -10 105 -10 271 0 169
4 264 10 264 6 0 10 5 10 10 0 6 -20 10 -45 10 -25 0 -45 -4 -45 -9z"/>
<path d="M2530 962 c-59 -29 -65 -53 -65 -272 0 -220 7 -249 70 -276 78 -32
147 17 144 103 -1 25 -3 30 -6 13 -13 -82 -35 -110 -86 -110 -65 0 -67 9 -67
266 0 259 4 274 64 274 40 0 63 -23 81 -82 l14 -43 0 75 c1 50 -2 70 -9 60 -7
-12 -14 -12 -43 -2 -44 16 -55 15 -97 -6z"/>
</g>
</svg>
